<svg version="1.1" id="Layer_1" xmlns="http://www.w3.org/2000/svg" xmlns:xlink="http://www.w3.org/1999/xlink" x="0px" y="0px"
	 width="100%" viewBox="0 0 278 278" enable-background="new 0 0 278 278" xml:space="preserve">
<path fill="#FDFEFE" opacity="1.000000" stroke="none" 
	d="
M279.000000,129.000000 
	C279.000000,133.024551 279.000000,137.049088 278.710815,141.700378 
	C260.475555,160.176178 246.136932,180.793839 231.505585,202.050629 
	C239.788376,203.437012 247.028046,204.648819 254.267700,205.860611 
	C254.211533,206.274750 254.155365,206.688889 254.099182,207.103027 
	C247.073517,206.671265 240.048523,205.984100 233.021790,205.965866 
	C230.956284,205.960495 227.963440,207.295502 226.961548,208.959213 
	C217.790619,224.188171 208.868866,239.570679 200.112625,255.043198 
	C198.146225,258.517883 197.110825,262.519470 195.646851,266.278503 
	C195.988861,266.577240 196.330872,266.875977 196.672882,267.174713 
	C198.115250,266.617218 199.628662,266.195190 200.989182,265.481659 
	C217.455521,256.845367 232.301102,246.268646 244.645523,232.049545 
	C259.430481,215.019302 269.633636,195.823456 275.058990,174.036530 
	C276.623566,167.753494 277.699860,161.348877 279.000000,155.000000 
	C279.000000,196.260300 279.000000,237.520615 279.000000,279.000000 
	C237.979370,279.000000 196.958344,279.000000 155.698273,278.658844 
	C165.222244,276.196045 175.009705,274.175812 184.720413,271.836975 
	C186.083389,271.508667 187.917191,269.740662 188.104019,268.434692 
	C190.770905,249.791382 199.109940,233.379395 207.891083,217.122818 
	C209.912796,213.380020 211.941498,209.640991 214.221924,205.429382 
	C212.310318,205.291672 211.024506,205.032150 209.768417,205.135162 
	C200.343124,205.908142 190.936371,207.101822 181.497711,207.444336 
	C175.800934,207.651062 172.452377,210.320450 169.516418,214.724136 
	C165.924637,220.111511 161.747589,225.106400 158.101578,230.460312 
	C147.633759,245.831512 137.013550,261.135101 131.000000,279.000000 
	C87.742020,279.000000 44.484032,279.000000 1.000000,279.000000 
	C1.000000,238.646057 1.000000,198.291687 1.330243,157.678589 
	C1.960244,159.774643 2.260002,162.129440 2.613088,164.903137 
	C6.039044,160.340424 8.590969,155.991119 12.028137,152.517868 
	C34.897079,129.408905 62.794212,114.690178 93.338394,104.537155 
	C94.806366,104.049202 96.486061,104.198189 98.067154,104.050560 
	C97.732040,105.011795 97.348846,105.342102 96.904648,105.493942 
	C74.269676,113.231255 53.860661,125.036400 35.693615,140.428802 
	C28.406389,146.603058 21.907421,153.963348 16.151182,161.612717 
	C11.009074,168.445953 13.724368,173.510269 22.171246,174.071442 
	C28.248434,174.475189 34.520847,174.634232 40.484291,173.610229 
	C74.148132,167.829758 104.859360,154.559082 132.661194,134.943039 
	C140.399323,129.483276 147.278168,122.330513 153.174850,114.867027 
	C159.315491,107.094788 157.275864,98.643318 148.793686,93.547348 
	C142.873596,89.990646 136.350464,87.189285 129.776169,85.023544 
	C117.478874,80.972511 104.741699,78.204643 92.571930,73.832870 
	C79.592628,69.170288 76.345840,59.401863 82.544441,46.973717 
	C83.727303,44.602100 85.060753,42.237217 86.711166,40.179131 
	C93.490013,31.725882 102.117218,25.457499 111.557175,20.383183 
	C129.237503,10.879369 147.768906,4.039948 168.198013,3.478690 
	C164.465332,2.652461 160.732666,1.826232 157.000000,1.000001 
	C197.594223,1.000000 238.188461,1.000000 279.000000,1.000000 
	C279.000000,42.020638 279.000000,83.041664 278.658569,124.302017 
	C272.313873,60.715916 221.838531,17.327404 183.270798,8.231256 
	C188.088425,11.938862 189.535553,16.789442 188.913010,22.148491 
	C188.516922,25.558123 187.849792,29.161409 186.317444,32.176331 
	C178.117004,48.310867 164.857101,58.616764 147.750931,63.905460 
	C144.054779,65.048195 139.861649,64.994034 135.926224,64.824097 
	C132.703293,64.684921 129.921173,62.710453 130.286011,59.090183 
	C130.805740,53.932991 133.163010,49.533039 138.099182,45.506474 
	C138.099182,48.610653 138.099182,50.656326 138.099182,53.270042 
	C140.195129,52.743572 141.833344,52.534271 143.309601,51.929592 
	C156.283600,46.615410 167.727997,39.012455 176.960052,28.411524 
	C179.302673,25.721573 181.096848,22.357216 182.407990,19.014442 
	C184.136871,14.606670 182.630463,11.829844 177.973328,10.909316 
	C174.460297,10.214931 170.621658,9.883366 167.138306,10.527614 
	C140.658752,15.425008 118.100693,28.092445 99.019615,46.751827 
	C87.668808,57.851776 89.851227,67.013206 104.651375,72.709129 
	C112.231567,75.626419 120.289246,77.291885 127.906601,80.126488 
	C137.672714,83.760696 147.663132,87.189781 156.723175,92.211441 
	C165.722198,97.199287 169.042542,107.382919 166.209457,117.395943 
	C164.625549,122.994026 161.782990,128.235977 159.357162,133.995529 
	C161.964691,133.267395 164.431213,132.312042 166.984604,131.913956 
	C175.804321,130.538925 184.651749,128.346298 193.493347,128.323929 
	C209.581207,128.283218 215.655121,137.658478 210.464905,152.818146 
	C209.712448,155.015961 209.019745,157.313446 207.812103,159.262955 
	C201.336639,169.716370 194.760178,180.108536 188.099915,190.445374 
	C185.912918,193.839661 183.370422,197.004898 180.528381,200.909790 
	C192.510513,200.909790 203.460266,201.026779 214.401703,200.778641 
	C215.971329,200.743042 217.993652,199.291550 218.967499,197.905746 
	C224.419846,190.146942 229.179688,181.868317 234.993942,174.404358 
	C244.994537,161.566284 255.307602,148.939285 266.126678,136.791168 
	C269.314606,133.211639 274.649200,131.543900 279.000000,129.000000 
M116.376228,169.882294 
	C106.829544,179.836472 97.200859,189.714630 87.825333,199.827499 
	C86.432327,201.330063 86.232376,203.938705 85.480476,206.035645 
	C87.355156,206.412888 89.234123,206.771133 91.099129,207.191315 
	C91.333527,207.244110 91.494392,207.623322 91.687492,207.852875 
	C88.174271,211.635300 83.038795,212.741745 78.837868,210.453720 
	C74.227394,207.942688 74.213448,203.607361 75.548744,199.543732 
	C76.825897,195.657013 78.834076,191.909912 81.084877,188.470490 
	C83.609680,184.612396 86.767136,181.168304 90.517052,176.452957 
	C82.560425,178.790390 76.133347,181.043976 69.535507,182.548950 
	C48.856331,187.265915 28.113678,192.802917 6.832036,182.294083 
	C18.784101,217.356552 40.137547,244.058212 72.034660,261.900299 
	C88.323769,271.011841 105.746986,277.032806 124.258827,278.043213 
	C128.235855,252.109924 142.977814,232.288239 156.496048,210.365875 
	C138.964188,213.955276 122.799644,217.511490 108.615005,227.257874 
	C103.409279,222.335144 103.603477,217.496552 109.790558,213.861267 
	C113.197403,211.859528 116.926933,209.980637 120.747841,209.187790 
	C133.584366,206.524124 146.546661,204.471298 159.410858,201.931580 
	C161.615036,201.496414 164.305161,200.344528 165.529907,198.634811 
	C174.447922,186.185577 183.236588,173.632812 191.658096,160.844055 
	C195.112946,155.597595 197.972427,149.856277 200.358490,144.035034 
	C203.284882,136.895615 199.924728,131.956757 192.272430,132.029755 
	C187.170303,132.078400 181.917633,132.600250 177.009171,133.931213 
	C153.764877,140.234100 134.873566,154.079865 116.376228,169.882294 
z"/>
<path fill="#7BBDC4" opacity="1.000000" stroke="none" 
	d="
M279.000000,128.600006 
	C274.649200,131.543900 269.314606,133.211639 266.126678,136.791168 
	C255.307602,148.939285 244.994537,161.566284 234.993942,174.404358 
	C229.179688,181.868317 224.419846,190.146942 218.967499,197.905746 
	C217.993652,199.291550 215.971329,200.743042 214.401703,200.778641 
	C203.460266,201.026779 192.510513,200.909790 180.528381,200.909790 
	C183.370422,197.004898 185.912918,193.839661 188.099915,190.445374 
	C194.760178,180.108536 201.336639,169.716370 207.812103,159.262955 
	C209.019745,157.313446 209.712448,155.015961 210.464905,152.818146 
	C215.655121,137.658478 209.581207,128.283218 193.493347,128.323929 
	C184.651749,128.346298 175.804321,130.538925 166.984604,131.913956 
	C164.431213,132.312042 161.964691,133.267395 159.357162,133.995529 
	C161.782990,128.235977 164.625549,122.994026 166.209457,117.395943 
	C169.042542,107.382919 165.722198,97.199287 156.723175,92.211441 
	C147.663132,87.189781 137.672714,83.760696 127.906601,80.126488 
	C120.289246,77.291885 112.231567,75.626419 104.651375,72.709129 
	C89.851227,67.013206 87.668808,57.851776 99.019615,46.751827 
	C118.100693,28.092445 140.658752,15.425008 167.138306,10.527614 
	C170.621658,9.883366 174.460297,10.214931 177.973328,10.909316 
	C182.630463,11.829844 184.136871,14.606670 182.407990,19.014442 
	C181.096848,22.357216 179.302673,25.721573 176.960052,28.411524 
	C167.727997,39.012455 156.283600,46.615410 143.309601,51.929592 
	C141.833344,52.534271 140.195129,52.743572 138.099182,53.270042 
	C138.099182,50.656326 138.099182,48.610653 138.099182,45.506474 
	C133.163010,49.533039 130.805740,53.932991 130.286011,59.090183 
	C129.921173,62.710453 132.703293,64.684921 135.926224,64.824097 
	C139.861649,64.994034 144.054779,65.048195 147.750931,63.905460 
	C164.857101,58.616764 178.117004,48.310867 186.317444,32.176331 
	C187.849792,29.161409 188.516922,25.558123 188.913010,22.148491 
	C189.535553,16.789442 188.088425,11.938862 183.270798,8.231256 
	C221.838531,17.327404 272.313873,60.715916 278.658569,124.770676 
	C279.000000,126.066673 279.000000,127.133339 279.000000,128.600006 
z"/>
<path fill="#7BBDC4" opacity="1.000000" stroke="none" 
	d="
M156.531342,1.000001 
	C160.732666,1.826232 164.465332,2.652461 168.198013,3.478690 
	C147.768906,4.039948 129.237503,10.879369 111.557175,20.383183 
	C102.117218,25.457499 93.490013,31.725882 86.711166,40.179131 
	C85.060753,42.237217 83.727303,44.602100 82.544441,46.973717 
	C76.345840,59.401863 79.592628,69.170288 92.571930,73.832870 
	C104.741699,78.204643 117.478874,80.972511 129.776169,85.023544 
	C136.350464,87.189285 142.873596,89.990646 148.793686,93.547348 
	C157.275864,98.643318 159.315491,107.094788 153.174850,114.867027 
	C147.278168,122.330513 140.399323,129.483276 132.661194,134.943039 
	C104.859360,154.559082 74.148132,167.829758 40.484291,173.610229 
	C34.520847,174.634232 28.248434,174.475189 22.171246,174.071442 
	C13.724368,173.510269 11.009074,168.445953 16.151182,161.612717 
	C21.907421,153.963348 28.406389,146.603058 35.693615,140.428802 
	C53.860661,125.036400 74.269676,113.231255 96.904648,105.493942 
	C97.348846,105.342102 97.732040,105.011795 98.067154,104.050560 
	C96.486061,104.198189 94.806366,104.049202 93.338394,104.537155 
	C62.794212,114.690178 34.897079,129.408905 12.028137,152.517868 
	C8.590969,155.991119 6.039044,160.340424 2.613088,164.903137 
	C2.260002,162.129440 1.960244,159.774643 1.330243,157.209930 
	C1.000000,145.979111 1.000000,134.958206 1.337957,123.243614 
	C2.604801,117.050941 3.109384,111.439415 4.533229,106.071739 
	C12.266603,76.918121 27.104624,52.268425 50.530960,32.811546 
	C66.813393,19.288086 85.081177,10.060549 105.455086,4.815065 
	C111.246887,3.323904 117.148659,2.259895 123.000000,0.999999 
	C134.020889,1.000000 145.041794,1.000000 156.531342,1.000001 
z"/>
<path fill="#FFFFFF" opacity="1.000000" stroke="none" 
	d="
M122.531342,0.999999 
	C117.148659,2.259895 111.246887,3.323904 105.455086,4.815065 
	C85.081177,10.060549 66.813393,19.288086 50.530960,32.811546 
	C27.104624,52.268425 12.266603,76.918121 4.533229,106.071739 
	C3.109384,111.439415 2.604801,117.050941 1.337957,122.774956 
	C1.000000,82.406372 1.000000,41.812737 1.000000,1.000000 
	C41.353962,1.000000 81.708321,1.000000 122.531342,0.999999 
z"/>
<path fill="#7BBDC4" opacity="1.000000" stroke="none" 
	d="
M131.468628,279.000000 
	C137.013550,261.135101 147.633759,245.831512 158.101578,230.460312 
	C161.747589,225.106400 165.924637,220.111511 169.516418,214.724136 
	C172.452377,210.320450 175.800934,207.651062 181.497711,207.444336 
	C190.936371,207.101822 200.343124,205.908142 209.768417,205.135162 
	C211.024506,205.032150 212.310318,205.291672 214.221924,205.429382 
	C211.941498,209.640991 209.912796,213.380020 207.891083,217.122818 
	C199.109940,233.379395 190.770905,249.791382 188.104019,268.434692 
	C187.917191,269.740662 186.083389,271.508667 184.720413,271.836975 
	C175.009705,274.175812 165.222244,276.196045 155.229614,278.658844 
	C147.312424,279.000000 139.624832,279.000000 131.468628,279.000000 
z"/>
<path fill="#7BBDC4" opacity="1.000000" stroke="none" 
	d="
M279.000000,154.536819 
	C277.699860,161.348877 276.623566,167.753494 275.058990,174.036530 
	C269.633636,195.823456 259.430481,215.019302 244.645523,232.049545 
	C232.301102,246.268646 217.455521,256.845367 200.989182,265.481659 
	C199.628662,266.195190 198.115250,266.617218 196.672882,267.174713 
	C196.330872,266.875977 195.988861,266.577240 195.646851,266.278503 
	C197.110825,262.519470 198.146225,258.517883 200.112625,255.043198 
	C208.868866,239.570679 217.790619,224.188171 226.961548,208.959213 
	C227.963440,207.295502 230.956284,205.960495 233.021790,205.965866 
	C240.048523,205.984100 247.073517,206.671265 254.099182,207.103027 
	C254.155365,206.688889 254.211533,206.274750 254.267700,205.860611 
	C247.028046,204.648819 239.788376,203.437012 231.505585,202.050629 
	C246.136932,180.793839 260.475555,160.176178 278.710815,142.163574 
	C279.000000,146.024551 279.000000,150.049088 279.000000,154.536819 
z"/>
<path fill="#7BBDC4" opacity="1.000000" stroke="none" 
	d="
M116.636658,169.642639 
	C134.873566,154.079865 153.764877,140.234100 177.009171,133.931213 
	C181.917633,132.600250 187.170303,132.078400 192.272430,132.029755 
	C199.924728,131.956757 203.284882,136.895615 200.358490,144.035034 
	C197.972427,149.856277 195.112946,155.597595 191.658096,160.844055 
	C183.236588,173.632812 174.447922,186.185577 165.529907,198.634811 
	C164.305161,200.344528 161.615036,201.496414 159.410858,201.931580 
	C146.546661,204.471298 133.584366,206.524124 120.747841,209.187790 
	C116.926933,209.980637 113.197403,211.859528 109.790558,213.861267 
	C103.603477,217.496552 103.409279,222.335144 108.615005,227.257874 
	C122.799644,217.511490 138.964188,213.955276 156.496048,210.365875 
	C142.977814,232.288239 128.235855,252.109924 124.258827,278.043213 
	C105.746986,277.032806 88.323769,271.011841 72.034660,261.900299 
	C40.137547,244.058212 18.784101,217.356552 6.832036,182.294083 
	C28.113678,192.802917 48.856331,187.265915 69.535507,182.548950 
	C76.133347,181.043976 82.560425,178.790390 90.517052,176.452957 
	C86.767136,181.168304 83.609680,184.612396 81.084877,188.470490 
	C78.834076,191.909912 76.825897,195.657013 75.548744,199.543732 
	C74.213448,203.607361 74.227394,207.942688 78.837868,210.453720 
	C83.038795,212.741745 88.174271,211.635300 91.688408,207.852081 
	C91.494392,207.623322 91.333527,207.244110 91.099129,207.191315 
	C89.234123,206.771133 87.355156,206.412888 85.480476,206.035645 
	C86.232376,203.938705 86.432327,201.330063 87.825333,199.827499 
	C97.200859,189.714630 106.829544,179.836472 116.636658,169.642639 
z"/>
</svg>